<svg width="17" height="22" viewBox="0 0 17 22" fill="none" xmlns="http://www.w3.org/2000/svg">
<path d="M3.32447 19.9833C2.31612 18.8375 1.30781 17.6458 0.666118 16.225C0.0244654 14.7125 -0.158882 12.9708 0.161965 11.3208C0.482813 9.67085 1.21612 8.1125 2.27031 6.78335C2.17866 7.9292 2.59116 9.12085 3.37031 9.9917C2.91197 7.7917 3.64531 5.40835 5.11197 3.6667C6.57862 1.92504 8.59531 0.779152 10.7036 0C9.64947 1.1 9.51196 2.84165 9.92447 4.30835C10.337 5.775 11.2078 7.05835 11.987 8.3875C12.7661 9.71665 13.4995 11.0917 13.5453 12.6042C13.9578 11.825 14.4162 11.0458 14.6912 10.175C14.9662 9.30415 15.1037 8.3875 14.8745 7.51665C15.6995 8.525 16.1579 9.5333 16.387 10.8167C16.6162 12.1 16.5704 13.4292 16.4329 14.7125C16.2495 16.1333 15.8829 17.6 15.1037 18.7917C14.1871 20.2125 12.7204 21.2208 11.1162 21.7708C8.27447 22.275 5.47862 21.8625 3.32447 19.9833Z" fill="url(#paint0_linear_429_490)"/>
<path d="M6.80773 21.6792C10.566 23.1458 14.2785 18.7 12.216 15.2625C12.216 15.2167 12.1702 15.2167 12.1702 15.1708C12.3535 17.05 11.8952 18.425 11.0243 19.2042C11.4827 18.1042 11.1618 16.8208 10.6118 15.7208C10.0618 14.6667 9.28268 13.7042 8.68684 12.6958C8.09099 11.6417 7.63268 10.45 7.90768 9.25835C6.80768 10.0833 6.02853 11.3208 5.70768 12.65C5.38684 13.9792 5.57018 15.4458 6.16603 16.6833C5.47853 16.1792 4.97438 15.3542 4.92853 14.4833C4.19518 15.3542 3.73688 16.5 3.78268 17.6458C3.78273 19.4333 5.20353 21.0375 6.80773 21.6792Z" fill="#FFD15C"/>
<defs>
<linearGradient id="paint0_linear_429_490" x1="-8.26273" y1="10.9843" x2="12.8497" y2="26.8798" gradientUnits="userSpaceOnUse">
<stop stop-color="#FDD819"/>
<stop offset="1" stop-color="#E80505"/>
</linearGradient>
</defs>
</svg>
