<svg width="24" height="24" viewBox="0 0 24 24" fill="none" xmlns="http://www.w3.org/2000/svg">
<path d="M4.5 20.9996C4.06667 20.9996 3.70833 20.8579 3.425 20.5746C3.14167 20.2913 3 19.9329 3 19.4996V4.27461C3 3.84128 3.14167 3.48294 3.425 3.19961C3.70833 2.91628 4.06667 2.77461 4.5 2.77461H9.625C9.69167 2.15794 9.94583 1.64128 10.3875 1.22461C10.8292 0.807943 11.3667 0.599609 12 0.599609C12.6333 0.599609 13.1708 0.807943 13.6125 1.22461C14.0542 1.64128 14.3083 2.15794 14.375 2.77461H19.5C19.9333 2.77461 20.2917 2.91628 20.575 3.19961C20.8583 3.48294 21 3.84128 21 4.27461V19.4996C21 19.9329 20.8583 20.2913 20.575 20.5746C20.2917 20.8579 19.9333 20.9996 19.5 20.9996H4.5ZM4.5 19.4996H19.5V4.27461H18V5.02461C18 5.44128 17.8542 5.79544 17.5625 6.08711C17.2708 6.37878 16.9167 6.52461 16.5 6.52461H7.5C7.08333 6.52461 6.72917 6.37878 6.4375 6.08711C6.14583 5.79544 6 5.44128 6 5.02461V4.27461H4.5V19.4996ZM12 4.34961C12.3 4.34961 12.5625 4.23711 12.7875 4.01211C13.0125 3.78711 13.125 3.52461 13.125 3.22461C13.125 2.92461 13.0125 2.66211 12.7875 2.43711C12.5625 2.21211 12.3 2.09961 12 2.09961C11.7 2.09961 11.4375 2.21211 11.2125 2.43711C10.9875 2.66211 10.875 2.92461 10.875 3.22461C10.875 3.52461 10.9875 3.78711 11.2125 4.01211C11.4375 4.23711 11.7 4.34961 12 4.34961Z" fill="#FA7328"/>
</svg>
